<?xml version="1.0" encoding="UTF-8"?>
<svg viewBox="0 0 993 1007" xmlns="http://www.w3.org/2000/svg">
 <g fill-rule="evenodd" stroke-width=".5">
  <path d="m0 503.5v-503.5h993v445h-0.2q-0.3 0-2.8-18.5t-8.5-44.5-18-57.5-13.3-31q-1.2 0.5-1-0.5 0.3-1-0.4-3.8-0.8-2.7-1.6-4l-0.7-1.2-0.3-0.2-0.2-0.3-0.2-0.3-0.3-0.2-0.3-0.2-0.2-0.3 0.2-0.3 0.3-0.2v-1l-0.3-0.2-0.2-0.3-0.2-0.3-0.3-0.2-0.5-1-0.5-1-0.3 0.2-0.2 0.3-1 0.3-1 0.2 0.2 2.5 0.3 2.5 0.5 1.5 0.5 1.5 0.7 1.2q0.8 1.3 12.6 34 11.7 32.8 16.7 53.8t5.5 23.5 0.8 4.5l0.2 2h-0.5l-0.5 2-0.5 2-0.3-0.2-0.2-0.3-1-0.3-1-0.2-0.2 4-0.3 4h-0.5l-0.2-1-0.3-1-0.5-3.5q-0.5-3.5-3.5-20t-9.5-41-18-51-24.8-49l-13.2-22.5-0.2-1q-0.3-1-14.6-21.5-14.2-20.5-15.2-20.5t-2-2.5-2-2.7q-1-0.3-13.5-15-12.5-14.8-13.5-14.8t-1.2-1q-0.3-1-3.6-3.5l-3.2-2.5-0.2-0.5q-0.3-0.5-0.8-1.5t-6.8-5.5q-6.2-4.5-6.4-5.5-0.3-1-2.6-2.2-2.2-1.3-2.7-2.6-0.5-1.2-1.7-1.7-1.3-0.5-9-6.3-7.8-5.7-8.3-7-0.5-1.2-3.5-2.2t-4-2.2q-1-1.3-1.5-2-0.5-0.8-1.5-0.8t-1.2-1q-0.3-1-4.6-3.8-4.2-2.7-11.2-6.4-7-3.8-7-4.8t-3-2.2q-3-1.3-3.5-2-0.5-0.8-3.5-1.3t-3-2-2.2-2q-2.3-0.5-4-1-1.8-0.5-1.8-1.5t-2-1.8q-2-0.7-4.2-2-2.3-1.2-4-1.2-1.8 0-2-1-0.3-1-10-5.8-9.8-4.7-13.3-5-3.5-0.2-3.5-1.2t-1.5-1-2-0.8q-0.5-0.7-1-1.4-0.5-0.8-8.5-3.6-8-2.7-8.5-3.4-0.5-0.8-3.3-1.3-2.7-0.5-6.4-2l-3.8-1.5h-2l-0.2-0.5q-0.3-0.5-0.6-0.5h-0.2l-0.5-0.2-0.5-0.3-1.5-0.5q-1.5-0.5-4.5-1.5t-4.5-0.7q-1.5 0.2-1.5-0.8t-2-1.2q-2-0.3-10-2.3t-10.2-2.7q-2.3-0.8-4.6-0.8h-2.2v-2l-1.5-0.2q-1.5-0.3-4.5-0.8t-23-4.5l-20-4-2-0.5-2-0.5 0.2-0.3 0.3-0.2 0.3-0.2 0.2-0.3 1-0.5 1-0.5 1.5-1q1.5-1 2.5-1.5l1-0.5 1-0.5 1-0.5 0.2-0.3 0.3-0.2 0.3-0.2 0.2-0.3 0.2-0.3 0.3-0.2 0.3-0.2 0.2-0.3h-2l-1.5 0.5-1.5 0.5-1.5 0.5-1.5 0.5-1.5 0.5q-1.5 0.5-4.5 1.5t-15 1.3l-12 0.2-6-0.8q-6-0.7-46-0.2t-70 5-55.5 11-45.5 14-49 21.5-50 27.5-38 27.5-28.2 24.3q-11.3 10.2-27.3 28.7t-28 35-24 37.5-22.5 44-17.5 44.5-14 52-10.5 63.5-3 69 4.5 65 12.5 63 18.5 59.5 22.7 49.7q12.8 24.3 26.8 45.3t28.2 38.3q14.3 17.2 20.6 24.7 6.2 7.5 31.7 29.3 25.5 21.7 47 36.2t41.5 25 36.5 18 40.5 15.5 38.5 11.5 16.5 4l2 0.5 2.5 0.5 2.5 0.5 2 0.5 2 0.5v0.5h-402v-503.5zm584.5-496.3q1.5 0.3 0 1-1.5 0.8-1.5-0.2t1.5-0.8z" fill="#fff" stroke="#fff"/>
  <g fill="#fef7f2" stroke="#fef7f2">
   <path d="m371 231.2l2-0.2 1 6.8q1 6.7 2 7.7t5 0.5 7-0.5 14.5 11 25 21 14.5 10.5l1 0.5 0.2 0.3 0.3 0.2 0.3 0.2 0.2 0.3 0.5 0.3 0.5 0.2v0.5l1 0.5 1 0.5 0.2 0.3 0.3 0.2 19 13q19 13 56.3 40.8 37.2 27.7 58.7 40.7t45.5 25.5 50.5 23 62 21 43.5 12 17 2l9 0.5-0.2 0.3-0.3 0.2-0.5 1.5-0.5 1.5-2 5.5q-2 5.5-2.5 7l-0.5 1.5-0.3 3-0.2 3 2.5-0.2 2.5-0.3 2.8-1.7q2.7-1.8 4.2-3.8t2-3l0.5-1 0.3-0.2 0.2-0.3 0.2-0.3 0.3-0.2 0.5 1 0.5 1 0.5 1 0.5 1 2.5 8q2.5 8 3 9.5l0.5 1.5 0.5 2 0.5 2h0.5l0.2 2q0.3 2 4.3 26t4 56-4.3 57.5q-4.2 25.5-11.2 30.3-7 4.7-31-1.3t-66-16.5-77.5-25-79-36.8l-43.5-22.2v-0.5l-1-0.5-1-0.5-1-0.5-1-0.5-1-0.5-1-0.5-1-0.5q-1-0.5-38-21t-79.2-45.8q-42.3-25.2-48-28.2-5.8-3-5.8-4t-2-1.5-2-1.5-1.2-1.5q-1.3-0.5-2.6-0.5h-1.2l-0.2-0.5q-0.3-0.5-2.3-1.5t-5.7-3.5q-3.8-2.5-3.8-3.5t-1.2-1.5q-1.3-0.5-4-2-2.8-1.5-3-3-0.3-1.5-1.6-2.3-1.2-0.7-4.2-2.2t-4.2-3.2q-1.3-1.8-3.3-2.8t-4-3-3.3-3q-1.2-1-1.4-2-0.3-1-1.6-1.5-1.2-0.5-1.4-1.5-0.3-1-2.3-2t-3.3-1.2q-1.2-0.3-3-3-1.7-2.8-3-2.3-1.2 0.5-1.2-2.5t-1.5-3-2.5-1.8q-1-1.7-1.5-1-0.5 0.8-1.5 0.8t-1-1.5-1.5-1.5-1.5-1.5-1-1.5-0.8-1q0.3-1-1.2-2.5t-4-4-4.2-5q-1.8-2.5-2.8-2.5t-1.2-1q-0.3-1-4.6-4.5-4.2-3.5-7.4-7.5-3.3-4-18.6-20l-15.2-16-0.2-0.5-0.3-0.5-0.3-0.2-0.2-0.3-0.2-0.3-0.3-0.2h-0.5l-0.2-0.5-0.3-0.5h-0.5l-0.2-0.5q-0.3-0.5-0.6-0.5h-0.2l-0.2-0.5q-0.3-0.5-0.6-0.5h-0.2l-0.2-0.5q-0.3-0.5-0.6-0.5h-0.2l-0.2-0.5q-0.3-0.5-0.6-0.5h-0.2v-1l-0.2-0.5q-0.3-0.5-0.6-0.5h-0.2l-0.2-0.5q-0.3-0.5-0.6-0.5h-0.2l-0.2-0.5q-0.3-0.5-0.6-0.5h-0.2l-0.2-0.5-0.3-0.5h-0.5l0.2-0.5 0.3-0.5 0.3-0.2q0.2-0.3 12.2-11.8t15.5-15.2q3.5-3.8 6.7-6.3 3.3-2.5 24-17 20.8-14.5 20.8-15.5t1-1h1l0.2-1 0.3-1 0.3 0.2 0.2 0.3 0.2 0.3 0.3 0.2 0.3-0.2 0.2-0.3 0.2-0.3 0.3-0.2 0.3-0.2 0.2-0.3 0.5-0.3 0.5-0.2h0.2q0.3 0 0.6-0.5l0.2-0.5 16-7.8q16-7.7 17.5-8 1.5-0.2 1.5-1.2t1.8-1q1.7 0 2.4-0.8 0.8-0.7 5.3-2.2t12-4 8-2.8l0.5-0.2 1-0.2 1-0.3 1.5-0.5 1.5-0.5 2-0.5 2-0.5 6.5-1.5q6.5-1.5 8.5-1.8z"/>
   <path d="m195 337.2v-0.2l1.8 1q1.7 1 2 2l0.2 1-0.5 0.2q-0.5 0.3 0 0.6l0.5 0.2v0.2q0 0.3 0.5 0.6l0.5 0.2v0.2q0 0.3 0.5 0.6l0.5 0.2v0.2q0 0.3 0.5 0.6l0.5 0.2v0.2q0 0.3 0.5 0.6l0.5 0.2h0.5l0.3 0.5 0.2 0.5v1q0 1 1 1h1l15.2 16q15.3 16 18.6 20 3.2 4 7.4 7.5 4.3 3.5 4.6 4.5 0.2 1 1.2 1t2.8 2.5q1.7 2.5 4.2 5t4 4 1.2 2.5q-0.2 1 1.8 1.5t2.5 1.7q0.5 1.3 2.7 2.6 2.3 1.2 2.6 2.2 0.2 1 1.7 1t1.5 3 1.2 2.5q1.3-0.5 3 2.3 1.8 2.7 3 3 1.3 0.2 3.3 1.2t2.3 2q0.2 1 1.4 1.5 1.3 0.5 1.6 1.5 0.2 1 1.4 2 1.3 1 3.3 3t4 3 3.3 2.8q1.2 1.7 4.2 3.2t5.5 2.2q2.5 0.8 2.5 1.8t-1 1.2q-1 0.3 3 2.6 4 2.2 4 3.2t3.8 3.5q3.7 2.5 5.7 3.5t2.3 1.5l0.2 0.5 0.5 2.5q0.5 2.5 1.5 2.7l1 0.3 0.2 0.3 0.3 0.2 0.3 0.2 0.2 0.3 38.5 27.5q38.5 27.5 83.5 55.5t46 28.5 1.2 0.8l0.3 0.2 0.3 0.2 0.2 0.3 1 0.5 1 0.5 1 0.3 1 0.2v0.2q0 0.3 0.5 0.6l0.5 0.2 25 14.2q25 14.3 57 30.3t59.5 27 79.5 25 58.5 14.7q6.5 0.8 7.5 3 1 2.3 6.5 2.8t6.5 0.2l1-0.2-0.2 2-0.3 2-0.5 1.5q-0.5 1.5-11 26t-21.5 43-25 36.5-19.7 20.2q-5.8 2.3-9 5-3.3 2.8-3.6 6.3-0.2 3.5-70.7-11.3-70.5-14.7-101.5-23.7t-57.5-18.5-50-22-58-36.2q-34.5-23.8-34.7-24.8-0.3-1-17.6-14.8-17.2-13.7-47.2-40.7t-64.8-61.7q-34.7-34.8-52-53-17.2-18.3-21.2-21.3l-4-3 0.2-0.3 0.3-0.2 0.3-0.2 0.2-0.3-0.2-0.3-0.3-0.2-0.3-0.2-0.2-0.3-0.2-0.3-0.3-0.2-0.3-0.2-0.2-0.3-1-0.3-1-0.2-0.2-1-0.3-1-0.3-0.2q-0.2-0.3-1.2-0.6-1-0.2-1.2-1.7-0.3-1.5-15.3-19t-15.5-20.5 4-14.5 18.5-36.5 28-44 23.5-30l9.5-11 0.3-0.2 0.2-0.3 1-0.5q1-0.5 1-0.8z"/>
   <path d="m105.8 479.5l0.2-1.5h2l0.2 1 0.3 1 0.3 0.2 0.2 0.3 0.2 0.3 0.3 0.2 0.3 0.2 0.2 0.3 0.2 0.3 0.3 0.2 13 17q13 17 13.3 17.2l0.2 0.3 0.2 0.3 0.3 0.2 0.3 1 0.2 1h2l0.2 1q0.3 1 0.6 1h0.2v0.2q0 0.3 0.5 0.6l0.5 0.2 1-0.5q1-0.5 0.8 0.5-0.3 1-0.3 2v1l0.3 0.2 0.2 0.3 0.2 0.3 0.3 0.2 28.7 34.8q28.8 34.7 54.8 63.7t51.5 54 52 47.5 50.5 40 47 30 52.5 24 63 21.5 69 18 59 11 28.5 3.5l5 0.5 0.2 0.3 0.3 0.2 0.3 0.2 0.2 0.3-0.2 0.3-0.3 0.2-0.3 0.2-0.2 0.3-0.2 0.3-0.3 0.2-0.3 0.2-0.2 0.3-0.2 0.3-0.3 0.2-0.3 0.2-0.2 0.3-0.2 0.3-0.3 0.2-0.3 0.2-0.2 0.3-0.2 0.3-0.3 0.2-0.3 0.2-0.2 0.3-0.2 0.3-0.3 0.2-0.3 0.2q-0.2 0.3-8 6.6-7.7 6.2-31.7 22.7t-56.3 33.7l-32.2 17.3-1.5 0.5-1.5 0.5-1 0.5-1 0.5v0.5l-1 0.2-1 0.3-1.5 0.5q-1.5 0.5-12.5 5.5t-16 6-65.5-19.5-90.5-32.5-41-17.5-30.8-19.8q-19.7-14.2-36.4-25.4-16.8-11.3-32.8-24.3t-21-18.7q-5-5.8-6-5.8t-1.2-1q-0.3-1-15.8-16.5t-30.2-32.3q-14.8-16.7-29.6-40-14.7-23.2-32.2-56.2t-18-58 1-42.5 6-39 8.5-33l4-11.5 0.5-1 0.5-1 0.3-1.5z"/>
  </g>
  <path d="m534 14.2l6 0.8-0.2 0.5-0.3 0.5-0.3 0.2-0.2 0.3 0.2 0.3 0.3 0.2 0.3 1.5q0.2 1.5-1.8 2l-2 0.5-26.5 0.2q-26.5 0.3-58 3.8t-64 11-59.5 17.5-56 24.5-40 29.5-19.2 28.3q-8.3 13.2-14.3 26.2t-10.5 31-5 34 2 36 2.5 41.5v23.5l0.3-0.2 0.2-0.3 0.2-0.3 0.3-0.2 0.3-0.2 0.2-0.3 0.2-0.3 0.3-0.2 0.3-0.2 0.2-0.3 1-0.5 1-0.5 0.2-0.3 0.3-0.2 0.3-0.2 0.2-0.3 0.2-0.3 0.3-0.2 19.3-15.8q19.2-15.7 37.4-27 18.3-11.2 18.8-10.7t1.2-0.7q0.8-1.3 2.6-1.6 1.7-0.2 2-0.4l0.2-0.3 0.2-0.3 0.3-0.2 0.3-1 0.2-1 1.5-0.2 1.5-0.3h2l0.2 0.3 0.3 0.2 0.3 0.5 0.2 0.5-0.5 0.2-0.5 0.3v0.5l-0.5 0.2-0.5 0.3-0.2 0.3-0.3 0.2-0.3 0.2-0.2 0.3-0.2 0.3-0.3 0.2-0.3-0.2-0.2-0.3-0.2-0.3-0.3-0.2-0.3 1-0.2 1h-1q-1 0-1 1t-20.8 15.5q-20.7 14.5-24 17-3.2 2.5-6.7 6.3-3.5 3.7-15.5 15.2t-12.2 11.8l-0.3 0.2-0.3 0.5-0.2 0.5h0.5l0.3 0.5 0.2 0.5h0.2q0.3 0 0.6 0.5l0.2 0.5h0.2q0.3 0 0.6 0.5l0.2 0.5h0.2q0.3 0 0.6 0.5l0.2 0.5 1 0.8q1 0.7 1.2 1l0.3 0.2 0.3 0.2 0.2 0.3 0.2 0.3 0.3 0.2 0.3 1 0.2 1h0.5l0.3 0.5 0.2 0.5h0.5l0.3 0.2 0.2 0.3 0.2 0.3 0.3 0.2 0.3 0.5 0.2 0.5-1-0.2-1-0.3-1-0.3-1-0.2-0.2-1-0.3-1-0.3-0.2-0.2-0.3-0.2-0.3-0.3-0.2-0.3-0.2-0.2-0.3-0.2-0.3q-0.3-0.2-2.8-2.7l-2.5-2.5-0.3-0.2-0.2-0.3-0.2-0.3-0.3-0.2-0.3 0.2-0.2 0.3-0.2 0.3-0.3 0.2-9.5 11q-9.5 11-23.5 30t-28 44-18.5 36.5-4 14.5 15.8 20.8q15.2 17.7 16.2 18l1 0.2 0.2 1.5 0.3 1.5 0.3 1 0.2 1h-0.5l-0.3 1.5-0.2 1.5h-2v-3h-2l-0.2-1-0.3-1-0.3-0.2-0.2-0.3-0.2-0.3q-0.3-0.2-13.3-17.2l-13-17-0.3-0.2-0.2-0.3-0.2-0.3-0.3-0.2-0.3-0.2-0.2-0.3-0.2-0.3-0.3-0.2-0.3-1-0.2-1h-2l-0.2 1.5-0.3 1.5-0.5 1-0.5 1-4 11.5q-4 11.5-8.5 33t-6 39-1 42.5 18 58 32.2 56.2q14.8 23.3 29.6 40 14.7 16.8 30.2 32.3t15.8 16.5q0.2 1 1.2 1t6 5.8q5 5.7 21 18.7t32.8 24.3q16.7 11.2 36.4 25.4 19.8 14.3 30.8 19.8t41 17.5 90.5 32.5 65.5 19.5 16-6 12.5-5.5l1.5-0.5 1-0.3 1-0.2h0.5l0.3 0.2 0.2 0.3h2l0.2-0.3 0.3-0.2 0.5 1 0.5 1 0.5 1 0.5 1 0.3 0.5 0.2 0.5h-0.5l-0.3 0.5-0.2 0.5-1 0.2-1 0.3-1 0.5-1 0.5-1 0.5q-1 0.5-9 3.5l-8 3-1.5 0.5-1.5 0.5-1.5 0.5-1.5 0.5-1 0.5-1 0.5 20-1q20-1 43-5t49-11 50-17 41.2-20.3q17.3-10.2 29.8-19.2t31.5-25.5 35.5-34.5 26.5-31 10.3-13.2l0.2-0.3 0.2-0.3 0.3-0.2 0.5-1 0.5-1 0.3-0.2 0.2-0.3 0.2-0.3 0.3-0.2 0.5-1 0.5-1 0.3-0.2 0.2-0.3 0.2-0.3 0.3-0.2v-2l-0.3 0.2-0.2 0.3-0.2 0.3-0.3 0.2-0.3 0.2-0.2 0.3-0.2 0.3-0.3 0.2-0.3 0.2-0.2 0.3-0.2 0.3-0.3 0.2-0.3 0.2-0.2 0.3-0.2 0.3-0.3 0.2-0.3 0.2-0.2 0.3-0.2 0.3-0.3 0.2-0.3 0.2-0.2 0.3-0.2 0.3-0.3 0.2-0.3 0.2-0.2 0.3-0.2 0.3q-0.3 0.2-6.8 6.2l-6.5 6-0.3 0.2-0.2 0.3-0.2 0.3-0.3 0.2-0.3 0.2-0.2 0.3-0.2 0.3-0.3 0.2-0.3 0.2-0.2 0.3-1 0.3-1 0.2 0.2-1.5 0.3-1.5 0.3 0.2 0.2 0.3 0.2 0.3 0.3 0.2 0.5-1.5 0.5-1.5 0.3-0.2 0.2-0.3-1-0.3-1-0.2-0.2 1-0.3 1-0.3-0.2-0.2-0.3-2-0.3-2-0.2v-0.5l1-0.5 1-0.5 0.2-0.3 0.3-0.2 0.3-0.2 0.2-0.3 1-0.5q1-0.5 11.5-7.5t16.5-13 19-29 22.8-44.3q9.7-21.2 19.2-48.7t16.5-57 11.5-59.5 5.5-64-1.3-57l-2.2-23-0.2-2q-0.3-2-0.8-4.5t-5.5-23.5-16.7-53.8q-11.8-32.7-12.6-34l-0.7-1.2-0.5-1.5-0.5-1.5-0.3-3.5-0.2-3.5 1 0.2 1 0.3 0.2 0.3 0.3 0.2 0.5 1 0.5 1 0.3 0.2 0.2 0.3 0.2 0.3 0.3 0.2v1l-0.3 0.2-0.2 0.3 0.2 0.3 0.3 0.2 0.3 0.2 0.2 0.3 0.2 0.3 0.3 0.2 0.7 1.2q0.8 1.3 6.6 14 5.7 12.8 14.7 38.8t15 53.5 7.5 40.5 1.8 13h0.2v92l-6.2 37.5q-6.3 37.5-16.3 72.5t-23.5 67-28.8 58.8q-15.2 26.7-28.7 45.7t-31.7 40.3q-18.3 21.2-36 37-17.8 15.7-35.8 28.7t-43 27-49 24.5-52 18.5-37 10-9 2.3v0.2h-194v-0.5l-2-0.5-2-0.5-2.5-0.5-2.5-0.5-2-0.5q-2-0.5-16.5-4t-38.5-11.5-40.5-15.5-36.5-18-41.5-25-47-36.2q-25.5-21.8-31.7-29.3-6.3-7.5-20.6-24.7-14.2-17.3-28.2-38.3t-26.8-45.3q-12.7-24.2-22.7-49.7t-18.5-59.5-12.5-63-4.5-65 3-69 10.5-63.5 14-52 17.5-44.5 22.5-44 24-37.5 28-35 27.3-28.7q11.2-10.3 28.2-24.3t38-27.5 50-27.5 49-21.5 45.5-14 55.5-11 70-5 46 0.2zm-439 429.8l-0.5 1-0.5 1-0.5 1-0.5 1-0.5 1-0.5 1-0.5 1-0.5-1.5-0.5-1.5-0.5-2.5-0.5-2.5-3.5-11.5q-3.5-11.5-9-27.5t-7.5-28-1.5-32.5 6.5-39.5 17.5-43.5 24-44.5 26.2-36.2q13.8-16.3 29.3-31.8t37.5-31.5 22.8-15.7q0.7 0.2-9.8 14.2t-18.5 28-18 38.5-17 50-9.5 48.5-1.5 37 4 24-14 30-34.5 46-18 27zm-44-33.5l2.5-16.5 0.5 4.5 0.5 4.5 4 20.5q4 20.5 8.5 32.5t6.8 16.2q2.2 4.3 4 5.6 1.7 1.2-4.8 21.7t-9.5 39-3.5 24-1 15l-0.5 9.5-0.5-1.5-0.5-1.5-0.5-2.5-0.5-2.5-0.5-2.5q-0.5-2.5-4-28t-3.5-73.5 2.5-64.5zm342.5 546l46.5 16 1 0.5 1 0.5 1 0.5 1 0.5 1 0.5 1 0.5h-4l-3-0.5q-3-0.5-20.5-4.5t-44-12.5-47-18-44.5-24.5-40.5-27.5-23-18.5-22.5-22-36.8-41.7q-20.7-25.8-36-51.6-15.2-25.7-23-42-7.7-16.2-10.7-38.2t-1.5-17 5 13.5 15 31.5 24 46 31.5 49 31.7 39.2q12.8 13.3 23.3 22.6 10.5 9.2 10.7 10.2 0.3 1 8.3 7.5t31 22 50.3 28.7q27.2 13.3 73.7 29.3z" stroke="#000"/>
  <path d="m664.2 42l-0.2-1 1 0.2q1 0.3 1 0.6v0.2h1l3.8 1.5q3.7 1.5 6.4 2 2.8 0.5 3.3 1.3 0.5 0.7 8.5 3.4 8 2.8 8.5 3.6 0.5 0.7 2 0.4 1.5-0.2 1.5 0.8t15.2 7.5q15.3 6.5 17 8.3 1.8 1.7 3.6 2 1.7 0.2 3 0.7 1.2 0.5 1.2 1.5t1.8 1.5q1.7 0.5 5 1.5 3.2 1 3.2 2t2 1.5 2.5 1.3q0.5 0.7 3.5 2 3 1.2 3 2.2t7 4.8q7 3.7 11.2 6.4 4.3 2.8 4.6 3.8 0.2 1 1.2 1t1.5 0.8q0.5 0.7 1.5 2 1 1.2 4 2.2t3.5 2.2q0.5 1.3 8.3 7 7.7 5.8 9 6.3 1.2 0.5 1.7 1.7 0.5 1.3 2.7 2.6 2.3 1.2 2.6 2.2 0.2 1 6.4 5.5 6.3 4.5 6.8 5.5t0.8 1.5l0.2 0.5-1 0.2q-1 0.3-0.8 2 0.3 1.8-8.7 17.3t-10.3 16q-1.2 0.5-1.7 3.5t-1.5 3-2 1.8q-1 1.7-1.5 4-0.5 2.2-1.5 2.4-1 0.3-3.5 4.8t-2.7 5.2q-0.3 0.8-1.6 1.8-1.2 1-1.2 2.5t-1 1.7q-1 0.3-1 2.6v2.2l-1 0.2-1 0.3-0.2 0.3-0.3 0.2-0.3 0.2-0.2 0.3-0.2 0.3-0.3 0.2-0.3 0.2-0.2 0.3-1 0.5-1 0.5 0.2 0.3 0.3 0.2 0.3 0.2 0.2 0.3-1 0.5q-1 0.5-13.2 17.2-12.3 16.8-29.8 38.8t-37.5 42.5-36 38.5-23.3 29.5l-7.2 11.5-1-0.2q-1-0.3-29.5-14.3t-47-24.5l-18.5-10.5-0.2-0.3-0.3-0.2-0.3-0.2-0.2-0.3 0.2-0.3q0.3-0.2 0.6-0.4 0.2-0.3 3.4-6 3.3-5.8 17.3-57.3t23.5-78 27.8-67.5l18.2-41 1.2-2.5q1.3-2.5 1.6-3l0.2-0.5 11.5-23q11.5-23 12.7-23.5 1.3-0.5 1-1.5z" fill="#fef7f2" stroke="#fef7f2"/>
  <path d="m986.8 574.5l6.2-37.5v470h-397v-0.2q0-0.3 9-2.3t37-10 52-18.5 49-24.5 43-27 35.8-28.7q17.7-15.8 36-37 18.2-21.3 31.7-40.3t28.7-45.7q15.3-26.8 28.8-58.8t23.5-67 16.3-72.5z" fill="#fff" stroke="#fff"/>
  <g fill="#fef7f2" stroke="#fef7f2">
   <path d="m509.5 21.2l26.5-0.2 0.5 0.2q0.5 0.3 3 0.8l2.5 0.5-1 0.5-1 0.5-1 0.5q-1 0.5-16 10t-32.5 23.5-34.5 31-31.8 34.7q-14.7 17.8-22.2 29.8t-14 26.5-10.5 31.5-13.3 19.8l-9.2 2.7-2 0.5-2 0.5-1.5 0.5-1.5 0.5-0.2 0.3-0.3 0.2-0.3 0.2-0.2 0.3v0.5l-0.5 0.2q-0.5 0.3-8 2.8t-12 4-5.3 2.2q-0.7 0.8-2.4 0.8-1.8 0-1.8 1t-1.5 1.2q-1.5 0.3-17 7.6-15.5 7.2-15.5 8.2t-1 1h-1v-0.5l-1-0.5q-1-0.5-2.5-0.8l-1.5-0.2-0.2 1-0.3 1-0.3 0.2-0.2 0.3-0.2 0.3q-0.3 0.2-0.8 1.2t-1.5 1-1.7-0.5q-0.8-0.5-1 0.5-0.3 1-0.8 0.5t-18.8 10.7q-18.2 11.3-37.4 27l-19.3 15.8-0.3 0.2-0.2 0.3-0.2 0.3-0.3 0.2-0.3 0.2-0.2 0.3-1 0.5-1 0.5-0.2 0.3-0.3 0.2-0.3 0.2-0.2 0.3-0.2 0.3-0.3 0.2-0.3 0.2-0.2 0.3-0.2 0.3-0.3 0.2v-23.5q0-21.5-2.5-41.5t-2-36 5-34 10.5-31 14.3-26.2q8.2-13.3 19.2-28.3t40-29.5 56-24.5 59.5-17.5 64-11 58-3.8z"/>
   <path d="m621.8 30.5l0.2-0.5v-2h1q1 0 1.5 0.8 0.5 0.7 3.5 1.7t11 3 14.5 4 8 2.5l1.5 0.5 0.5 0.3 0.5 0.2v0.5l0.5 0.3 0.5 0.2h2v2h-2.5q-2.5 0-14 23l-11.5 23h-1q-1 0-1.5 1.2-0.5 1.3-0.5 3v1.8h-1.5q-1.5 0-13.7 21-12.3 21-29.8 54.5t-27.5 55.5-17.5 46-11.2 44.5l-3.8 20.5-1-0.2-1-0.3-0.2-0.3-0.3-0.2-0.3-0.2-0.2-0.3-1-0.5-1-0.5-0.2-0.3-0.3-0.2-0.3-0.2q-0.2-0.3-36.7-24.8l-36.5-24.5-0.2-0.3-0.3-0.2-0.3-0.2-0.2-0.3-1-0.5-1-0.5-0.2-0.3-0.3-0.2h-0.5v-0.5l-21-14.5q-21-14.5-27.8-20.2-6.7-5.8-4.4-13.3 2.2-7.5 3.2-7.5t0.8-1.5q-0.3-1.5 7.2-23.5t16.8-38.2q9.2-16.3 28.4-43 19.3-26.8 30.6-39 11.2-12.3 31.2-27.8t32-23 28-6 28 3 16 2.5 4.2 0.7q0.3-0.2 0.6-0.7z"/>
   <path d="m834 143.2l1-0.2 3.2 2.5q3.3 2.5 3.6 3.5 0.2 1 1.2 1t13.5 14.8q12.5 14.7 13.5 15 1 0.2 2 2.7t2 2.5 15.2 20.5q14.3 20.5 14.6 21.5l0.2 1-2.2 13.5q-2.3 13.5-5.8 29.5t-3.2 17.5q0.2 1.5-0.6 2-0.7 0.5-1.7 5t-1.3 7q-0.2 2.5-1.2 2.5t-1.8 5q-0.7 5-1.7 6.5t-1.7 3.7q-0.8 2.3-0.8 2.6v0.2l-0.5 0.2-0.5 0.3-0.2 0.3-0.3 0.2-0.3 0.2-0.2 0.3 0.2 0.3 0.3 0.2v1l-0.5 1-0.5 1-0.5 1q-0.5 1-9.5 21.5t-31 61.5l-22 41-0.3 1-0.2 1-1-0.2-1-0.3-2-0.5-2-0.5-0.2-0.3-0.3-0.2-0.3-0.2-0.2-0.3-0.2-0.3-0.3-0.2-0.5-1q-0.5-1-1-2.5l-0.5-1.5-0.5-1-0.5-1-0.5-1-0.5-1-0.3-0.2-0.2-0.3-0.2-0.3-0.3-0.2v2l0.5 1 0.5 1 0.5 1.5 0.5 1.5 0.3 1.5 0.2 1.5-1.5-0.2-1.5-0.3-1.5-0.5-1.5-0.5-2.5-0.5q-2.5-0.5-48-12.5t-66.5-21l-21-9-1-0.5-1-0.5-1-0.5-1-0.5-0.2-0.3-0.3-0.2v-2l0.3-0.2 0.2-0.3 1-0.5 1-0.5 0.2-0.3 0.3-0.2 0.3-0.2 0.2-0.3 7.8-6.7q7.7-6.8 21.2-23.8t45.8-62.2q32.2-45.3 44.4-65.6 12.3-20.2 12.8-21.2l0.5-1 0.5-1.5 0.5-1.5 0.3-0.2 0.2-0.3 0.2-0.3 0.3-0.2v-2h-0.5v-2.2q0-2.3 1-2.6 1-0.2 1-1.7t1.2-2.5q1.3-1 1.6-1.8 0.2-0.7 2.7-5.2t3.5-4.8q1-0.2 1.5-2.4 0.5-2.3 1.5-4 1-1.8 2-1.8t1.5-3 1.7-3.5q1.3-0.5 10.3-16t8.7-17.3q-0.2-1.7 0.8-2zm-32.8 295.3l0.3-1.5 0.3 0.2 0.2 0.3 0.2 0.3 0.3 0.2 0.3 1q0.2 1-0.8 1t-0.8-1.5z"/>
   <path d="m901.8 241.5l2.2-13.5 13.2 22.5q13.3 22.5 24.8 49t18 51 9.5 41 3.5 20l0.5 3.5 0.3 1 0.2 1 1.2 16q1.3 16 0.8 50t-0.8 41.5l-0.2 7.5h-1q-1 0-1.2-2-0.3-2-10 18.5l-9.8 20.5-0.5-0.2-0.5-0.3-0.2-0.3-0.3-0.2-0.3 0.2-0.2 0.3-0.2 0.3-0.3 0.2-0.5 1-0.5 1-0.3 0.2-0.2 0.3-0.2 0.3-0.3 0.2-0.3 0.2-0.2 0.3-0.2 0.3-0.3 0.2-0.5 1-0.5 1-0.5 1q-0.5 1-3 4.5t-15.5 18.5-26 26-25.7 19.2l-12.8 8.3-0.2 0.3-0.3 0.2-0.3 0.2-0.2 0.3-1 0.5-1 0.5-1 0.3-1 0.2-0.2-14q-0.3-14-1.3-24.5t-5-32.5-12.3-49.5l-8.2-27.5-0.2-0.5-0.3-0.5-0.5-1.5-0.5-1.5-0.5-1q-0.5-1-2.5-6.5t-3.5-11.5 5-17.5 17.5-37 24-61.5 12.3-36.5q-0.8-0.5-0.8-1.5t1-1 1.2-1l0.3-1 0.5-1 0.5-1 0.3-0.2 0.2-0.3-1.5-0.5-1.5-0.5v-0.7q0-0.3 0.2-0.6 0.3-0.2 0.8-2.7t2.2-8.5q1.8-6 2.8-6t1.2-2.5q0.3-2.5 1.3-7t1.7-5q0.8-0.5 0.6-2-0.3-1.5 3.2-17.5t5.8-29.5z"/>
  </g>
  <path d="m827 508.5v-1.5h4l8.2 27.5q8.3 27.5 12.3 49.5t5 32.5 1.3 24.5l0.2 14 1-0.2 1-0.3 1-0.5 1-0.5 0.2-0.3 0.3-0.2 0.3-0.2 0.2-0.3 12.8-8.3q12.7-8.2 25.7-19.2t26-26 15.5-18.5 3-4.5l0.5-1 0.5-1 0.5-1 0.3-0.2 0.2-0.3 0.2-0.3 0.3-0.2 0.3-0.2 0.2-0.3 0.2-0.3 0.3-0.2 0.5-1 0.5-1 0.3-0.2 0.2-0.3 0.2-0.3 0.3-0.2 0.3 0.2 0.2 0.3 0.5 0.3 0.5 0.2-0.2 0.5-0.3 0.5-0.3 0.2-0.2 0.3-0.2 0.3-0.3 0.2-0.5 1-0.5 1-0.5 1-0.5 1-14 22q-14 22-29 39.5t-27.3 29.3q-12.2 11.7-17.4 16-5.3 4.2-10.3 26.7t-13 42.5-16 34-19 29.5-11.5 16.5l-0.5 1-0.3 0.2-0.2 0.3-0.2 0.3-0.3 0.2-0.3 0.2-0.2 0.3-0.2 0.3-0.3 0.2-0.3 0.2-0.2 0.3-0.2 0.3-0.3 0.2-0.3 0.2-0.2 0.3-0.2 0.3-0.3 0.2-0.3 0.2-0.2 0.3h8l15-4q15-4 28.8-11.3 13.7-7.2 14-7.4 0.2-0.3 1.2-0.8l1-0.5 0.5-0.3 0.5-0.2 2 0.2 2 0.3 0.2 0.3 0.3 0.2 0.3-1 0.2-1 1 0.2 1 0.3-0.2 0.3-0.3 0.2-0.5 2-0.5 2h-0.5l-0.5 0.2-0.5 0.3v0.5l-0.2 0.5-0.3 0.5-0.3 0.2-0.2 0.3-0.2 0.3q-0.3 0.2-4 3.4-3.8 3.3-17.8 12.8t-33.5 18-32.5 11.5-26.8 13.7q-13.7 10.8-33.2 23.8t-42.8 25.8q-23.2 12.7-58.2 27.2l-35 14.5-1 0.3-1 0.2-0.2-2-0.3-2-0.5-1-0.5-1-0.3 0.2-0.2 0.3h-2l-0.2-0.3-0.3-0.2h-0.5v-0.5l1-0.5 1-0.5 1.5-0.5 1.5-0.5 32.2-17.3q32.3-17.2 56.3-33.7t31.7-22.7q7.8-6.3 8-6.6l0.3-0.2 0.3-0.2 0.2-0.3 0.2-0.3 0.3-0.2 0.3-0.2 0.2-0.3 0.2-0.3 0.3-0.2 0.3-0.2 0.2-0.3 0.2-0.3 0.3-0.2 0.3-0.2 0.2-0.3 0.2-0.3 0.3-0.2 0.3-0.2 0.2-0.3 0.2-0.3 0.3-0.2 0.3-0.2 0.2-0.3-0.2-0.3-0.3-0.2-0.3-0.2-0.2-0.3-5-0.5q-5-0.5-28.5-3.5t-59-11-69-18-63-21.5-52.5-24-47-30-50.5-40-52-47.5-51.5-54-54.8-63.7l-28.7-34.8-0.3-0.2-0.2-0.3-0.2-0.3-0.3-0.2-0.5-1-0.5-1-0.3-0.2-0.2-0.3v-0.5l-0.2-0.5-0.3-0.5h-0.5l0.2-0.5 0.3-0.5 0.3-0.2 0.2-0.3 0.2-0.3 0.3-0.2h0.5l1 0.2 1 0.3 0.2 0.3 0.3 0.2 0.3 0.2 0.2 0.3 0.2 0.3 0.3 0.2 0.3 0.2 0.2 0.3-0.2 0.3-0.3 0.2-0.3 0.2-0.2 0.3 4 3q4 3 21.2 21.3 17.3 18.2 52 53 34.8 34.7 64.8 61.7t47.2 40.7q17.3 13.8 17.6 14.8 0.2 1 34.7 24.8 34.5 23.7 58 36.2t50 22 57.5 18.5 101.5 23.7q70.5 14.8 70.7 11.3 0.3-3.5 3.6-6.3 3.2-2.7 9-5 5.7-2.2 19.7-20.2t25-36.5 21.5-43 11-26l0.5-1.5 0.3-2 0.2-2-1 0.2q-1 0.3-6.5-0.2t-6.5-2.8q-1-2.2-7.5-3-6.5-0.7-58.5-14.7t-79.5-25-59.5-27-57-30.3l-25-14.2-0.2-0.5q-0.3-0.5-0.6-0.5h-0.2l-0.2-0.5q-0.3-0.5-0.6-2.5l-0.2-2h-3l-0.2-1.5-0.3-1.5-0.3-0.2-0.2-0.3 0.2-0.3 0.3-0.2 0.3-1 0.2-1 4.5-0.2 4.5-0.3 1-0.5 1-0.5 1-0.3 1-0.2 43.5 22.2q43.5 22.3 79 36.8t77.5 25 66 16.5 31 1.3q7-4.8 11.2-30.3 4.3-25.5 4.3-57.5t-4-56-4.3-26l-0.2-2v-1.5z" stroke="#000"/>
  <g fill="#fef7f2" stroke="#fef7f2">
   <path d="m95 444l-0.5 1-0.5 1-0.5 1-0.5 1-0.5 1-0.5 1-0.5 1-0.5-1.5-0.5-1.5-0.5-2.5-0.5-2.5-3.5-11.5q-3.5-11.5-9-27.5t-7.5-28-1.5-32.5 6.5-39.5 17.5-43.5 24-44.5 26.2-36.2q13.8-16.3 29.3-31.8t37.5-31.5 22.8-15.7q0.7 0.2-9.8 14.2t-18.5 28-18 38.5-17 50-9.5 48.5-1.5 37 4 24-14 30-34.5 46-18 27z"/>
   <path d="m978 408l0.5-2h0.5l2.2 23q2.3 23 1.3 57t-5.5 64-11.5 59.5-16.5 57-19.2 48.7q-9.8 21.3-22.8 44.3t-19 29-16.5 13-11.5 7.5l-1 0.5-0.2 0.3-0.3 0.2-0.3 0.2-0.2 0.3-1 0.5-1 0.5v0.5l-0.5 0.2-0.5 0.3-1 0.5q-1 0.5-1.2 0.8-0.3 0.2-14 7.4-13.8 7.3-28.8 11.3l-15 4h-8l0.2-0.3 0.3-0.2 0.3-0.2 0.2-0.3 0.2-0.3 0.3-0.2 0.3-0.2 0.2-0.3 0.2-0.3 0.3-0.2 0.3-0.2 0.2-0.3 0.2-0.3 0.3-0.2 0.3-0.2 0.2-0.3 0.2-0.3 0.3-0.2 0.5-1q0.5-1 11.5-16.5t19-29.5 16-34 13-42.5 10.3-26.7q5.2-4.3 17.4-16 12.3-11.8 27.3-29.3t29-39.5l14-22 0.5-1 0.5-1 0.5-1 0.5-1 0.3-0.2 0.2-0.3 0.2-0.3 0.3-0.2 0.3-0.5 0.2-0.5 9.8-20.5q9.7-20.5 10-18.5 0.2 2 1.2 2h1l0.2-7.5q0.3-7.5 0.8-41.5t-0.8-50l-1.2-16h0.5l0.3-4 0.2-4 1 0.2 1 0.3 0.2 0.3 0.3 0.2 0.5-2z"/>
  </g>
  <g fill="#fdf7f1" stroke="#fdf7f1">
   <path d="m883.8 795.8l0.2-0.3 0.2-0.3 0.3-0.2v2l-0.3 0.2-0.2 0.3-0.2 0.3-0.3 0.2-0.5 1-0.5 1-0.3 0.2-0.2 0.3-0.2 0.3-0.3 0.2-0.5 1-0.5 1-0.3 0.2-0.2 0.3-0.2 0.3q-0.3 0.2-10.3 13.2t-26.5 31-35.5 34.5-31.5 25.5-29.8 19.2q-17.2 10.3-41.2 20.3t-50 17-49 11-43 5l-20 1 1-0.5 1-0.5 1.5-0.5 1.5-0.5 1.5-0.5 1.5-0.5 8-3q8-3 9-3.5l1-0.5 1-0.5 1-0.5 1-0.3 1-0.2 0.5-0.2q0.5-0.3 0.5-0.6v-0.2l29-11.2q29-11.3 54.8-24.6 25.7-13.2 47.2-27.2t37.2-26.2q15.8-12.3 28.8-15.3t32.5-11.5 33.5-18 17.8-12.8q3.7-3.2 4-3.4l0.2-0.3 0.2-0.3 0.3-0.2 0.3-0.5 0.2-0.5h0.2q0.3 0 0.6-0.5l0.2-0.5 1-0.2 1-0.3 0.2-0.3 0.3-0.2 0.3-0.2 0.2-0.3 0.2-0.3 0.3-0.2 6.5-6q6.5-6 6.8-6.2l0.2-0.3 0.2-0.3 0.3-0.2 0.3-0.2 0.2-0.3 0.2-0.3 0.3-0.2 0.3-0.2 0.2-0.3 0.2-0.3 0.3-0.2 0.3-0.2 0.2-0.3 0.2-0.3 0.3-0.2 0.3-0.2 0.2-0.3 0.2-0.3 0.3-0.2 0.3-0.2 0.2-0.3 0.2-0.3 0.3-0.2 0.3-0.2z"/>
   <path d="m51 410.5l2.5-16.5 0.5 4.5 0.5 4.5 4 20.5q4 20.5 8.5 32.5t6.8 16.2q2.2 4.3 4 5.6 1.7 1.2-4.8 21.7t-9.5 39-3.5 24-1 15l-0.5 9.5-0.5-1.5-0.5-1.5-0.5-2.5-0.5-2.5-0.5-2.5q-0.5-2.5-4-28t-3.5-73.5 2.5-64.5z"/>
  </g>
  <path d="m393.5 956.5l46.5 16 1 0.5 1 0.5 1 0.5 1 0.5 1 0.5 1 0.5h-4l-3-0.5q-3-0.5-20.5-4.5t-44-12.5-47-18-44.5-24.5-40.5-27.5-23-18.5-22.5-22-36.8-41.7q-20.7-25.8-36-51.6-15.2-25.7-23-42-7.7-16.2-10.7-38.2t-1.5-17 5 13.5 15 31.5 24 46 31.5 49 31.7 39.2q12.8 13.3 23.3 22.6 10.5 9.2 10.7 10.2 0.3 1 8.3 7.5t31 22 50.3 28.7q27.2 13.3 73.7 29.3z" fill="#faf6ee" stroke="#faf6ee"/>
  <path d="m638 90h1l-1 3.5q-1 3.5-2 3.5t-11.2 23q-10.3 23-24.3 57.5t-25 75-18.5 64.5-9.5 26.5-2.3 2.7l-0.2 0.3 0.2 0.3 0.3 0.2 0.3 0.2 0.2 0.3 18.5 10.5q18.5 10.5 47 24.5t29.5 14.3l1 0.2 7.2-11.5q7.3-11.5 23.3-29.5t36-38.5 37.5-42.5 29.8-38.8q12.2-16.7 13.2-17.2l1-0.5-0.2-0.3-0.3-0.2-0.3-0.2-0.2-0.3 1-0.5 1-0.5 0.2-0.3 0.3-0.2 0.3-0.2 0.2-0.3 0.2-0.3 0.3-0.2 0.3-0.2 0.2-0.3 1-0.3 1-0.2h0.5v2l-0.3 0.2-0.2 0.3-0.2 0.3-0.3 0.2-0.5 1.5-0.5 1.5-0.5 1q-0.5 1-12.8 21.2-12.2 20.3-44.4 65.6-32.3 45.2-45.8 62.2t-21.2 23.8l-7.8 6.7-0.2 0.3-0.3 0.2-0.3 0.2-0.2 0.3-1 0.5-1 0.5-0.2 0.3-0.3 0.2v2l0.3 0.2 0.2 0.3 1 0.5 1 0.5 1 0.5 1 0.5 21 9q21 9 66.5 21t48 12.5l2.5 0.5 1.5 0.5 1.5 0.5 1.5 0.3 1.5 0.2-0.2-1.5-0.3-1.5-0.5-1.5-0.5-1.5-0.5-1-0.5-1-0.5-1-0.5-1-0.5-1-0.5-1v-3l0.3 0.2 0.2 0.3 0.2 0.3 0.3 0.2 0.5 1 0.5 1 0.5 1.5 0.5 1.5 0.5 1 0.5 1 0.5 1 0.5 1 0.5 1.5q0.5 1.5 1 2.5l0.5 1 0.3 0.2 0.2 0.3 0.2 0.3 0.3 0.2 0.3 0.2 0.2 0.3 2 0.5 2 0.5 1 0.3 1 0.2 0.2-1 0.3-1 22-41q22-41 31-61.5t9.5-21.5l0.5-1 0.5-1 0.5-1v-1l-0.3-0.2-0.2-0.3 0.2-0.3 0.3-0.2 0.3-0.2 0.2-0.3 0.5-0.3 0.5-0.2v0.5l1.5 0.5 1.5 0.5-0.2 0.3-0.3 0.2-0.5 1-0.5 1-8 24q-8 24-22.7 60.8-14.8 36.7-23 51.4-8.3 14.8-6.8 20.8t3.5 11.5 2.5 6.5l0.5 1 0.5 1.5 0.5 1.5 0.3 0.5 0.2 0.5h-4v3h-0.5l-0.5-2-0.5-2-0.5-1.5q-0.5-1.5-3-9.5l-2.5-8-0.5-1-0.5-1-0.5-1-0.5-1-0.3 0.2-0.2 0.3-0.2 0.3-0.3 0.2-0.5 1q-0.5 1-2 3t-4.2 3.8l-2.8 1.7-2.5 0.3-2.5 0.2 0.2-3 0.3-3 0.5-1.5q0.5-1.5 2.5-7l2-5.5 0.5-1.5 0.5-1.5 0.3-0.2 0.2-0.3-9-0.5q-9-0.5-17-2t-43.5-12-62-21-50.5-23-45.5-25.5-58.7-40.7q-37.3-27.8-56.3-40.8l-19-13-0.3-0.2-0.2-0.3-1-0.5-1-0.5v-0.5l1-0.2 1-0.3 0.2-0.3 0.3-0.2v-1l-0.3-0.2-0.2-0.3-0.2-0.3-0.3-0.2-0.3-0.2-0.2-0.3-0.2-0.3-0.3-0.2-0.3-0.2-0.2-0.3 0.2-0.3 0.3-0.2 0.3-0.2 0.2-0.3 1-0.5 1-0.5v-0.5h0.5l0.3 0.2 0.2 0.3 1 0.5 1 0.5 0.2 0.3 0.3 0.2 0.3 0.2 0.2 0.3 36.5 24.5q36.5 24.5 36.7 24.8l0.3 0.2 0.3 0.2 0.2 0.3 1 0.5 1 0.5 0.2 0.3 0.3 0.2 0.3 0.2 0.2 0.3 1 0.3 1 0.2 3.8-20.5q3.7-20.5 11.2-44.5t17.5-46 27.5-55.5 31.8-57.5q14.2-24 15.2-24z" fill="#040404" stroke="#040404"/>
  <path d="m581.5 10l-1.5 0.5-0.2 0.3-0.3 0.2-0.3 0.2-0.2 0.3-1 0.5-1 0.5-1 0.5q-1 0.5-2.5 1.5l-1.5 1-1 0.5-1 0.5-0.2 0.3-0.3 0.2-0.3 0.2-0.2 0.3 2 0.5 2 0.5 20 4q20 4 23 4.5t4.5 0.8l1.5 0.2v2l-0.2 0.5q-0.3 0.5-0.6 0.7-0.2 0.3-4.2-0.7t-16-2.5-28-3-28 6-32 23-31.2 27.8q-11.3 12.2-30.6 39-19.2 26.7-28.4 43-9.3 16.2-16.8 38.2t-7.2 23.5q0.2 1.5-0.8 1.5t-3.2 7.5q-2.3 7.5 4.4 13.3 6.8 5.7 27.8 20.2l21 14.5v1l0.2 0.3 0.3 0.2 0.3 1 0.2 1h-2l-0.2-1-0.3-1-0.3 0.2-0.2 0.3-0.2 0.3-0.3 0.2-0.3 0.2-0.2 0.3 0.2 0.3 0.3 0.2 0.3 0.2 0.2 0.3 0.2 0.3 0.3 0.2 0.3 0.2 0.2 0.3 0.2 0.3 0.3 0.2v1l-0.3 0.2-0.2 0.3-1 0.3-1 0.2-0.5-0.2-0.5-0.3-0.2-0.3-0.3-0.2-0.3-0.2-0.2-0.3-1-0.5q-1-0.5-14.5-10.5t-25-21-14.5-11-7 0.5-5-0.5-2-7.7l-1-6.8-2 0.2q-2 0.3-8.5 1.8l-6.5 1.5-2 0.5-2 0.5-1.5 0.5-1.5 0.5-1 0.3-1 0.2v-0.5l0.2-0.3 0.3-0.2 0.3-0.2 0.2-0.3 1.5-0.5 1.5-0.5 2-0.5 2-0.5 9.2-2.7q9.3-2.8 13.3-19.8t10.5-31.5 14-26.5 22.2-29.8q14.8-17.7 31.8-34.7t34.5-31 32.5-23.5 16-10l1-0.5 1-0.5 1-0.5-2.5-0.5q-2.5-0.5-3-0.8l-0.5-0.2 2-0.5q2-0.5 1.8-2l-0.3-1.5-0.3-0.2-0.2-0.3 0.2-0.3 0.3-0.2 0.3-0.5 0.2-0.5 12-0.2q12-0.3 15-1.3t4.5-1.5l1.5-0.5 1.5-0.5 1.5-0.5 1.5-0.5 1.5-0.5 3.5-1q3.5-1 2 0t-3 1.5z" fill="#050505" stroke="#050505"/>
  <path d="m516 576l1 0.5 1 0.5 1 0.5 1 0.5 1 0.5 1 0.5 1 0.5v0.5l-1 0.2-1 0.3-1 0.5-1 0.5-4.5 0.3-4.5 0.2-0.2 1-0.3 1-0.3 0.2-0.2 0.3 0.2 0.3 0.3 0.2 0.3 1.5 0.2 1.5 2.5 0.5q2.5 0.5 2.5 1.5v1l-1 0.2-1 0.3 1 0.3 1 0.2v2l-1-0.2-1-0.3-0.2-0.3-0.3-0.2-0.3-0.2-0.2-0.3-1-0.5-1-0.5-0.2-0.3-0.3-0.2-0.3-0.2q-0.2-0.3-1.2-0.8t-46-28.5-83.5-55.5l-38.5-27.5-0.2-0.3-0.3-0.2-0.3-0.2-0.2-0.3-1-0.3q-1-0.2-1.5-2.7l-0.5-2.5h1.2q1.3 0 2.6 0.5 1.2 0.5 1.2 1.5t2 1.5 2 1.5 5.8 4q5.7 3 48 28.2 42.2 25.3 79.2 45.8t38 21z" fill="#0e0d0d" stroke="#0e0d0d"/>
 </g>
</svg>
